<svg id="Capa_1" data-name="Capa 1" xmlns="http://www.w3.org/2000/svg" viewBox="0 0 259.15 259.15"><defs><style>.cls-1{fill:#3d9a8e;}.cls-2{fill:#fff;}</style></defs><title>Logo_AF</title><path class="cls-1" d="M203.72,225.47a96.3,96.3,0,1,1,12-191.85,129.51,129.51,0,1,0,83.56,107.54A96.31,96.31,0,0,1,203.72,225.47Z" transform="translate(-40.86 -25.48)"/><path class="cls-2" d="M174.21,112.43c-.82,4.62-1.73,8.89-2.32,13.21-.77,5.64-.86,11.29,1.33,16.71,1.65,4.09,4.18,5.73,8.5,5.72a25.1,25.1,0,0,0,16.07-5.92,101.27,101.27,0,0,0,18.37-19.31,11.06,11.06,0,0,0,1.4-2.71,1.4,1.4,0,0,0-.52-1.24,1.53,1.53,0,0,0-1.36.13,8,8,0,0,0-1.3,1.57,82.41,82.41,0,0,1-20.28,19.5,41.24,41.24,0,0,1-7.67,4.09c-4.06,1.58-6.63.1-7.08-4.22a48.32,48.32,0,0,1,.05-10.48c.6-5.49,1.65-10.93,2.51-16.36,3.84,0,7.18.16,10.5,0,4.79-.27,9.33-1.46,12.8-5.08,1-1.07,2.14-2.41.12-3.92-6,7.22-13.91,6.6-22.05,5.79.07-.45.09-.77.17-1.08a231.1,231.1,0,0,1,24-58.22c.48-.81.91-1.65,1.34-2.49.8-1.58.33-2.6-1.46-2.53-4.29.16-8.12,1.19-11.06,4.86-14.14,17.64-28.42,35.17-42.61,52.79a3.5,3.5,0,0,1-4,1.37c-6.8-1.34-13.62-2.65-20.46-3.77-8.44-1.39-16.88-2.93-25.53-1.73-5.86.81-11.32,2.29-14.87,7.49-3.79,5.55-4.27,11.8-3.33,18.23a7.82,7.82,0,0,0,1.64,3.42c.39.51,1.47.48,2.23.69.16-.68.67-1.52.44-2-1.67-3.58-.39-6.74,1.33-9.76,3.84-6.72,10.24-9.29,17.47-10.3,9.79-1.38,19.48.38,29.18,1.27,3.37.31,6.71.8,10.43,1.24a13.46,13.46,0,0,1-.86,1.14c-9.06,9.24-17.84,18.75-27.28,27.56-4.56,4.26-10.13,7.6-15.65,10.63a38.18,38.18,0,0,1-22.11,4.45c-8.12-.72-11.77-4.47-12.44-12.48a14.37,14.37,0,0,0-.77-2.74L68,137.78c-.45,1.41-1.23,2.8-1.29,4.23-.36,8.09,4.61,14.26,13.53,16.68,9.1,2.46,17.83.88,26.23-3a65.47,65.47,0,0,0,19.6-14.34c9.24-9.64,18-19.7,27.07-29.54.63-.69,1.6-1.65,2.32-1.58C161.67,110.83,167.85,111.65,174.21,112.43Z" transform="translate(-40.86 -25.48)"/><path class="cls-2" d="M262.79,147.6a12.42,12.42,0,0,0-2.25-2.68c-3.59-2.51-7.49-2.85-11-.07-5.2,4.15-10.23,8.11-11.19,15.88-.6,4.83-4.24,9.29-6.57,14-3.89-3.16-5.2-3.39-8.86-1.08a4.7,4.7,0,0,0-2.06,3.3c0,1.86,1.74,2.63,3.51,2.68,1.43,0,2.87-.16,4.61-.27-.47,1-.85,1.72-1.19,2.48-2.7,5.91-5.51,11.78-8,17.77a39.55,39.55,0,0,0-2,7.66,2.48,2.48,0,0,0,.93,2.07,6.2,6.2,0,0,0,8-1.29c2.3-2.75,4.35-5.71,6.46-8.62.24-.34.15-.92.32-2.13-1.36,1.21-2.26,1.92-3.05,2.74-.94,1-1.63,2.29-2.71,3.05a14,14,0,0,1-3.62,1.31,26,26,0,0,1-.17-3.62,7.91,7.91,0,0,1,.85-2.68c2.92-6,5.84-12,8.9-17.92a3.58,3.58,0,0,1,2.38-1.43c8.7-1.42,17.42-2.68,26.11-4.13a33.52,33.52,0,0,0,5.35-1.84l-.15-1.19a31.12,31.12,0,0,0-5.09-.22c-7.06.76-14.11,1.68-21.16,2.53-1.22.15-2.45.24-3.67.36l-.6-.77c4.45-6.14,8.77-12.37,13.42-18.36a25.87,25.87,0,0,1,6.34-5.53C258.18,148.58,260.3,148.37,262.79,147.6Z" transform="translate(-40.86 -25.48)"/><path class="cls-2" d="M282,156.6c-3.11-5.59-.38-9.57,3-13.17,2.28-2.41,5.05-4.35,7.48-6.62.67-.62,1.5-2.06,1.24-2.46-.57-.86-2-2-2.71-1.78a42.61,42.61,0,0,0-6.19,2.61c-1,.44-2.11,1.25-3.11,1.17-4.52-.37-9-.88-13.52-1.56-10.93-1.67-21.85-3.45-33-2.77-8.56.52-16.8,2.28-24.37,6.47-4.81,2.66-8.69,6.3-10.11,11.74-.89,3.39-2.4,7-.63,10.51a15.06,15.06,0,0,0,8.76,7.86,13.31,13.31,0,0,0,2.71.35l.29-.84c-1.66-1.1-3.34-2.19-5-3.32-3.62-2.5-4.63-5.38-3.25-9.55,1.83-5.57,5.93-9.13,10.9-11.76a61.6,61.6,0,0,1,31.73-7c11.64.47,23.25,1.34,34.88,2.06.11,0,.21.21.39.41-3.1,4.29-3.83,9.21-3.29,14.36C278.44,155.08,278.93,156.87,282,156.6Z" transform="translate(-40.86 -25.48)"/><path d="M174.21,112.43c-6.36-.78-12.54-1.6-18.75-2.22-.72-.07-1.69.89-2.32,1.58-9,9.84-17.83,19.9-27.07,29.54a65.47,65.47,0,0,1-19.6,14.34c-8.4,3.9-17.13,5.48-26.23,3-8.92-2.42-13.89-8.59-13.53-16.68.06-1.43.84-2.82,1.29-4.23l1.09.12a14.37,14.37,0,0,1,.77,2.74c.67,8,4.32,11.76,12.44,12.48a38.18,38.18,0,0,0,22.11-4.45c5.52-3,11.09-6.37,15.65-10.63,9.44-8.81,18.22-18.32,27.28-27.56a13.46,13.46,0,0,0,.86-1.14c-3.72-.44-7.06-.93-10.43-1.24-9.7-.89-19.39-2.65-29.18-1.27-7.23,1-13.63,3.58-17.47,10.3-1.72,3-3,6.18-1.33,9.76.23.5-.28,1.34-.44,2-.76-.21-1.84-.18-2.23-.69a7.82,7.82,0,0,1-1.64-3.42c-.94-6.43-.46-12.68,3.33-18.23,3.55-5.2,9-6.68,14.87-7.49,8.65-1.2,17.09.34,25.53,1.73,6.84,1.12,13.66,2.43,20.46,3.77a3.5,3.5,0,0,0,4-1.37c14.19-17.62,28.47-35.15,42.61-52.79,2.94-3.67,6.77-4.7,11.06-4.86,1.79-.07,2.26.95,1.46,2.53-.43.84-.86,1.68-1.34,2.49a231.1,231.1,0,0,0-24,58.22c-.08.31-.1.63-.17,1.08,8.14.81,16.08,1.43,22.05-5.79,2,1.51.9,2.85-.12,3.92-3.47,3.62-8,4.81-12.8,5.08-3.32.19-6.66,0-10.5,0-.86,5.43-1.91,10.87-2.51,16.36a48.32,48.32,0,0,0-.05,10.48c.45,4.32,3,5.8,7.08,4.22a41.24,41.24,0,0,0,7.67-4.09,82.41,82.41,0,0,0,20.28-19.5,8,8,0,0,1,1.3-1.57,1.53,1.53,0,0,1,1.36-.13,1.4,1.4,0,0,1,.52,1.24,11.06,11.06,0,0,1-1.4,2.71,101.27,101.27,0,0,1-18.37,19.31,25.1,25.1,0,0,1-16.07,5.92c-4.32,0-6.85-1.63-8.5-5.72-2.19-5.42-2.1-11.07-1.33-16.71C172.48,121.32,173.39,117.05,174.21,112.43Zm15.71-48-31.91,42,16.73,2.68C179.88,93.93,184.9,79.15,189.92,64.41Z" transform="translate(-40.86 -25.48)"/><path d="M262.79,147.6c-2.49.77-4.61,1-6.2,2a25.87,25.87,0,0,0-6.34,5.53c-4.65,6-9,12.22-13.42,18.36l.6.77c1.22-.12,2.45-.21,3.67-.36,7.05-.85,14.1-1.77,21.16-2.53a31.12,31.12,0,0,1,5.09.22l.15,1.19a33.52,33.52,0,0,1-5.35,1.84c-8.69,1.45-17.41,2.71-26.11,4.13a3.58,3.58,0,0,0-2.38,1.43c-3.06,5.93-6,11.93-8.9,17.92a7.91,7.91,0,0,0-.85,2.68,26,26,0,0,0,.17,3.62,14,14,0,0,0,3.62-1.31c1.08-.76,1.77-2.07,2.71-3.05.79-.82,1.69-1.53,3.05-2.74-.17,1.21-.08,1.79-.32,2.13-2.11,2.91-4.16,5.87-6.46,8.62a6.2,6.2,0,0,1-8,1.29,2.48,2.48,0,0,1-.93-2.07,39.55,39.55,0,0,1,2-7.66c2.52-6,5.33-11.86,8-17.77.34-.76.72-1.5,1.19-2.48-1.74.11-3.18.31-4.61.27-1.77-.05-3.49-.82-3.51-2.68a4.7,4.7,0,0,1,2.06-3.3c3.66-2.31,5-2.08,8.86,1.08,2.33-4.73,6-9.19,6.57-14,1-7.77,6-11.73,11.19-15.88,3.48-2.78,7.38-2.44,11,.07A12.42,12.42,0,0,1,262.79,147.6Z" transform="translate(-40.86 -25.48)"/><path d="M282,156.6c-3.05.27-3.54-1.52-3.72-3.3-.54-5.15.19-10.07,3.29-14.36-.18-.2-.28-.41-.39-.41-11.63-.72-23.24-1.59-34.88-2.06a61.6,61.6,0,0,0-31.73,7c-5,2.63-9.07,6.19-10.9,11.76-1.38,4.17-.37,7,3.25,9.55,1.64,1.13,3.32,2.22,5,3.32l-.29.84a13.31,13.31,0,0,1-2.71-.35,15.06,15.06,0,0,1-8.76-7.86c-1.77-3.53-.26-7.12.63-10.51,1.42-5.44,5.3-9.08,10.11-11.74,7.57-4.19,15.81-6,24.37-6.47,11.11-.68,22,1.1,33,2.77,4.48.68,9,1.19,13.52,1.56,1,.08,2.09-.73,3.11-1.17a42.61,42.61,0,0,1,6.19-2.61c.75-.19,2.14.92,2.71,1.78.26.4-.57,1.84-1.24,2.46-2.43,2.27-5.2,4.21-7.48,6.62C281.6,147,278.87,151,282,156.6Z" transform="translate(-40.86 -25.48)"/><path class="cls-2" d="M189.92,64.41c-5,14.74-10,29.52-15.18,44.64L158,106.37Z" transform="translate(-40.86 -25.48)"/></svg>